<?xml version="1.0" standalone="no"?>
<svg xmlns:xlink="http://www.w3.org/1999/xlink" id="wave" style="transform:rotate(180deg); transition: 0.3s" viewBox="0 0 1440 260" version="1.1" xmlns="http://www.w3.org/2000/svg"><defs><linearGradient id="sw-gradient-0" x1="0" x2="0" y1="1" y2="0"><stop stop-color="rgba(0, 255, 206, 1)" offset="0%"/><stop stop-color="rgba(26, 255, 124, 1)" offset="100%"/></linearGradient></defs><path style="transform:translate(0, 0px); opacity:1" fill="url(#sw-gradient-0)" d="M0,26L24,47.7C48,69,96,113,144,112.7C192,113,240,69,288,69.3C336,69,384,113,432,125.7C480,139,528,121,576,108.3C624,95,672,87,720,82.3C768,78,816,78,864,99.7C912,121,960,165,1008,160.3C1056,156,1104,104,1152,69.3C1200,35,1248,17,1296,47.7C1344,78,1392,156,1440,195C1488,234,1536,234,1584,212.3C1632,191,1680,147,1728,117C1776,87,1824,69,1872,86.7C1920,104,1968,156,2016,186.3C2064,217,2112,225,2160,212.3C2208,199,2256,165,2304,151.7C2352,139,2400,147,2448,143C2496,139,2544,121,2592,95.3C2640,69,2688,35,2736,30.3C2784,26,2832,52,2880,86.7C2928,121,2976,165,3024,186.3C3072,208,3120,208,3168,208C3216,208,3264,208,3312,212.3C3360,217,3408,225,3432,229.7L3456,234L3456,260L3432,260C3408,260,3360,260,3312,260C3264,260,3216,260,3168,260C3120,260,3072,260,3024,260C2976,260,2928,260,2880,260C2832,260,2784,260,2736,260C2688,260,2640,260,2592,260C2544,260,2496,260,2448,260C2400,260,2352,260,2304,260C2256,260,2208,260,2160,260C2112,260,2064,260,2016,260C1968,260,1920,260,1872,260C1824,260,1776,260,1728,260C1680,260,1632,260,1584,260C1536,260,1488,260,1440,260C1392,260,1344,260,1296,260C1248,260,1200,260,1152,260C1104,260,1056,260,1008,260C960,260,912,260,864,260C816,260,768,260,720,260C672,260,624,260,576,260C528,260,480,260,432,260C384,260,336,260,288,260C240,260,192,260,144,260C96,260,48,260,24,260L0,260Z"/></svg>